<svg xmlns="http://www.w3.org/2000/svg" width="240" height="180" viewBox="0 0 240 180">
  <rect width="240" height="180" fill="#f8f9fa" rx="4"/>
  <rect x="16" y="30" width="60" height="120" rx="4" fill="#fff" stroke="#e5e7eb"/>
  <rect x="90" y="20" width="60" height="140" rx="4" fill="#fff" stroke="#6366f1" stroke-width="1.5"/>
  <rect x="164" y="30" width="60" height="120" rx="4" fill="#fff" stroke="#e5e7eb"/>
  <circle cx="46" cy="60" r="14" fill="#f3f4f6"/>
  <circle cx="120" cy="50" r="16" fill="#6366f1" opacity=".15"/>
  <circle cx="194" cy="60" r="14" fill="#f3f4f6"/>
  <rect x="30" y="50" width="32" height="6" rx="1" fill="#6366f1" opacity=".6"/>
  <rect x="104" y="40" width="32" height="6" rx="1" fill="#6366f1"/>
  <rect x="178" y="50" width="32" height="6" rx="1" fill="#6366f1" opacity=".6"/>
  <rect x="26" y="82" width="40" height="3" rx="1" fill="#d1d5db"/>
  <rect x="26" y="90" width="36" height="3" rx="1" fill="#d1d5db"/>
  <rect x="26" y="98" width="40" height="3" rx="1" fill="#d1d5db"/>
  <rect x="100" y="74" width="40" height="3" rx="1" fill="#d1d5db"/>
  <rect x="100" y="82" width="36" height="3" rx="1" fill="#d1d5db"/>
  <rect x="100" y="90" width="40" height="3" rx="1" fill="#d1d5db"/>
  <rect x="100" y="98" width="34" height="3" rx="1" fill="#d1d5db"/>
  <rect x="174" y="82" width="40" height="3" rx="1" fill="#d1d5db"/>
  <rect x="174" y="90" width="36" height="3" rx="1" fill="#d1d5db"/>
  <rect x="174" y="98" width="40" height="3" rx="1" fill="#d1d5db"/>
  <rect x="28" y="118" width="36" height="10" rx="3" fill="#e5e7eb"/>
  <rect x="102" y="116" width="36" height="12" rx="3" fill="#6366f1"/>
  <rect x="176" y="118" width="36" height="10" rx="3" fill="#e5e7eb"/>
  <rect x="80" y="6" width="80" height="5" rx="1" fill="#374151"/>
</svg>