<svg xmlns="http://www.w3.org/2000/svg" width="240" height="180" viewBox="0 0 240 180">
  <rect width="240" height="180" fill="#f8f9fa" rx="4"/>
  <rect x="75" y="10" width="90" height="5" rx="1" fill="#374151"/>
  <rect x="90" y="20" width="60" height="3" rx="1" fill="#9ca3af"/>
  <!-- Card 1 -->
  <rect x="10" y="34" width="68" height="126" rx="4" fill="#fff" stroke="#e5e7eb"/>
  <rect x="10" y="34" width="68" height="42" rx="4" fill="#6366f1" opacity=".1"/>
  <circle cx="34" cy="50" r="7" fill="#6366f1" opacity=".2"/>
  <rect x="16" y="84" width="50" height="4" rx="1" fill="#374151"/>
  <rect x="16" y="92" width="56" height="3" rx="1" fill="#d1d5db"/>
  <rect x="16" y="98" width="48" height="3" rx="1" fill="#d1d5db"/>
  <rect x="16" y="110" width="28" height="3" rx="1" fill="#6366f1" opacity=".6"/>
  <rect x="16" y="130" width="22" height="7" rx="2" fill="#f3f4f6"/>
  <!-- Card 2 -->
  <rect x="86" y="34" width="68" height="126" rx="4" fill="#fff" stroke="#e5e7eb"/>
  <rect x="86" y="34" width="68" height="42" rx="4" fill="#e5e7eb"/>
  <circle cx="110" cy="50" r="7" fill="#d1d5db"/>
  <rect x="92" y="84" width="50" height="4" rx="1" fill="#374151"/>
  <rect x="92" y="92" width="56" height="3" rx="1" fill="#d1d5db"/>
  <rect x="92" y="98" width="48" height="3" rx="1" fill="#d1d5db"/>
  <rect x="92" y="110" width="28" height="3" rx="1" fill="#6366f1" opacity=".6"/>
  <rect x="92" y="130" width="22" height="7" rx="2" fill="#f3f4f6"/>
  <!-- Card 3 -->
  <rect x="162" y="34" width="68" height="126" rx="4" fill="#fff" stroke="#e5e7eb"/>
  <rect x="162" y="34" width="68" height="42" rx="4" fill="#e5e7eb"/>
  <circle cx="186" cy="50" r="7" fill="#d1d5db"/>
  <rect x="168" y="84" width="50" height="4" rx="1" fill="#374151"/>
  <rect x="168" y="92" width="56" height="3" rx="1" fill="#d1d5db"/>
  <rect x="168" y="98" width="48" height="3" rx="1" fill="#d1d5db"/>
  <rect x="168" y="110" width="28" height="3" rx="1" fill="#6366f1" opacity=".6"/>
  <rect x="168" y="130" width="22" height="7" rx="2" fill="#f3f4f6"/>
</svg>