<svg xmlns="http://www.w3.org/2000/svg" width="240" height="180" viewBox="0 0 240 180">
  <rect width="240" height="180" fill="#f8f9fa" rx="4"/>
  <!-- Background accent bar -->
  <rect x="0" y="40" width="240" height="100" fill="#6366f1" opacity="0.06" rx="0"/>
  <!-- Title -->
  <rect x="70" y="14" width="100" height="5" rx="1" fill="#374151"/>
  <rect x="85" y="24" width="70" height="3" rx="1" fill="#9ca3af"/>
  <!-- Stat 1 -->
  <text x="38" y="82" text-anchor="middle" font-family="Arial,sans-serif" font-size="22" font-weight="bold" fill="#6366f1">50</text>
  <rect x="20" y="92" width="36" height="3" rx="1" fill="#6b7280"/>
  <rect x="24" y="100" width="28" height="2" rx="1" fill="#9ca3af"/>
  <!-- Stat 2 -->
  <text x="98" y="82" text-anchor="middle" font-family="Arial,sans-serif" font-size="22" font-weight="bold" fill="#6366f1">2K</text>
  <rect x="80" y="92" width="36" height="3" rx="1" fill="#6b7280"/>
  <rect x="84" y="100" width="28" height="2" rx="1" fill="#9ca3af"/>
  <!-- Stat 3 -->
  <text x="158" y="82" text-anchor="middle" font-family="Arial,sans-serif" font-size="22" font-weight="bold" fill="#6366f1">99</text>
  <rect x="140" y="92" width="36" height="3" rx="1" fill="#6b7280"/>
  <rect x="144" y="100" width="28" height="2" rx="1" fill="#9ca3af"/>
  <!-- Stat 4 -->
  <text x="210" y="82" text-anchor="middle" font-family="Arial,sans-serif" font-size="22" font-weight="bold" fill="#6366f1">4.9</text>
  <rect x="192" y="92" width="36" height="3" rx="1" fill="#6b7280"/>
  <rect x="196" y="100" width="28" height="2" rx="1" fill="#9ca3af"/>
  <!-- Dividers -->
  <line x1="68" y1="60" x2="68" y2="115" stroke="#e5e7eb" stroke-width="1"/>
  <line x1="128" y1="60" x2="128" y2="115" stroke="#e5e7eb" stroke-width="1"/>
  <line x1="180" y1="60" x2="180" y2="115" stroke="#e5e7eb" stroke-width="1"/>
</svg>