<svg xmlns="http://www.w3.org/2000/svg" width="240" height="180" viewBox="0 0 240 180">
  <rect width="240" height="180" fill="#f8f9fa" rx="4"/>
  <!-- Title -->
  <rect x="80" y="10" width="80" height="5" rx="1" fill="#374151"/>
  <!-- Mosaic grid -->
  <!-- Large left -->
  <rect x="12" y="26" width="100" height="70" rx="3" fill="#6366f1" opacity="0.15"/>
  <rect x="42" y="52" width="40" height="16" rx="2" fill="#6366f1" opacity="0.2"/>
  <!-- Top right -->
  <rect x="118" y="26" width="52" height="33" rx="3" fill="#e5e7eb"/>
  <rect x="176" y="26" width="52" height="33" rx="3" fill="#6366f1" opacity="0.1"/>
  <!-- Mid right -->
  <rect x="118" y="63" width="110" height="33" rx="3" fill="#e5e7eb"/>
  <!-- Bottom row -->
  <rect x="12" y="100" width="70" height="50" rx="3" fill="#e5e7eb"/>
  <rect x="86" y="100" width="70" height="50" rx="3" fill="#6366f1" opacity="0.12"/>
  <rect x="160" y="100" width="68" height="50" rx="3" fill="#e5e7eb"/>
  <!-- Image icons -->
  <circle cx="47" cy="120" r="6" fill="#d1d5db"/>
  <polygon points="34,140 47,128 60,140" fill="#d1d5db"/>
  <circle cx="121" cy="120" r="6" fill="#6366f1" opacity="0.25"/>
  <polygon points="108,140 121,128 134,140" fill="#6366f1" opacity="0.25"/>
  <circle cx="194" cy="120" r="6" fill="#d1d5db"/>
  <polygon points="181,140 194,128 207,140" fill="#d1d5db"/>
  <!-- Icon on large -->
  <circle cx="62" cy="54" r="5" fill="#6366f1" opacity="0.3"/>
  <polygon points="50,70 62,58 74,70" fill="#6366f1" opacity="0.3"/>
</svg>